<svg width="55" height="55" viewBox="0 0 55 55" fill="none" xmlns="http://www.w3.org/2000/svg">
<path fill-rule="evenodd" clip-rule="evenodd" d="M4.58368 14.2396C4.58368 18.9313 8.44979 22.7501 13.2056 22.7501C17.9614 22.7501 21.8275 18.9313 21.8275 14.2396C21.8275 9.5453 17.9614 5.72917 13.2056 5.72917C12.5505 5.72917 11.9007 5.80102 11.2698 5.94738C10.1806 6.19487 9.50394 7.26999 9.75736 8.34244C10.0108 9.4149 11.0946 10.0908 12.1865 9.8327C12.5154 9.75819 12.8605 9.72094 13.2056 9.72094C15.7318 9.72094 17.7834 11.7461 17.7834 14.2396C17.7834 16.7305 15.7318 18.7583 13.2056 18.7583C10.6794 18.7583 8.62773 16.7305 8.62773 14.2396C8.62773 13.9841 8.6493 13.7313 8.68974 13.4892C8.87576 12.4007 8.12896 11.3735 7.02898 11.1899C5.91552 11.0169 4.88564 11.7434 4.70231 12.8319C4.62412 13.2896 4.58368 13.7606 4.58368 14.2396ZM31.8162 16.2347H48.3941C49.5103 16.2347 50.4161 15.3406 50.4161 14.2388C50.4161 13.1371 49.5103 12.2429 48.3941 12.2429H31.8162C30.7 12.2429 29.7942 13.1371 29.7942 14.2388C29.7942 15.3406 30.7 16.2347 31.8162 16.2347ZM23.1859 42.7557H6.60535C5.48919 42.7557 4.58333 41.8616 4.58333 40.7599C4.58333 39.6581 5.48919 38.764 6.60535 38.764H23.1859C24.3021 38.764 25.208 39.6581 25.208 40.7599C25.208 41.8616 24.3021 42.7557 23.1859 42.7557ZM33.1728 40.7604C33.1728 45.452 37.039 49.2708 41.7948 49.2708C46.5479 49.2708 50.4167 45.452 50.4167 40.7604C50.4167 40.2814 50.3762 39.8103 50.298 39.3526C50.1147 38.2642 49.0686 37.5297 47.9714 37.7107C46.8714 37.8943 46.1246 38.9215 46.3106 40.0099C46.351 40.2521 46.3726 40.5049 46.3726 40.7604C46.3726 43.2512 44.3182 45.2791 41.7948 45.2791C39.2686 45.2791 37.2169 43.2512 37.2169 40.7604C37.2169 37.9262 40.0208 35.7201 42.8246 36.3535C43.9111 36.601 44.9949 35.9224 45.2457 34.8499C45.4937 33.7774 44.8089 32.705 43.7197 32.4628C43.0888 32.3218 42.4418 32.2499 41.7948 32.2499C37.039 32.2499 33.1728 36.0661 33.1728 40.7604Z" fill="#200E32"/>
</svg>
