<svg width="24" height="24" viewBox="0 0 24 24" fill="none" xmlns="http://www.w3.org/2000/svg">
<path d="M7.20711 4.20711C7.59763 3.81658 7.59763 3.18342 7.20711 2.79289C6.81658 2.40237 6.18342 2.40237 5.79289 2.79289L3.5 5.08579L2.70711 4.29289C2.31658 3.90237 1.68342 3.90237 1.29289 4.29289C0.902369 4.68342 0.902369 5.31658 1.29289 5.70711L2.79289 7.20711C3.18342 7.59763 3.81658 7.59763 4.20711 7.20711L7.20711 4.20711Z" fill="black" fill-opacity="0.65"/>
<path d="M22 4H10C9.44771 4 9 4.44772 9 5C9 5.55228 9.44771 6 10 6H22C22.5523 6 23 5.55228 23 5C23 4.44772 22.5523 4 22 4Z" fill="black" fill-opacity="0.65"/>
<path d="M10 11C9.44771 11 9 11.4477 9 12C9 12.5523 9.44771 13 10 13H22C22.5523 13 23 12.5523 23 12C23 11.4477 22.5523 11 22 11H10Z" fill="black" fill-opacity="0.65"/>
<path d="M9 19C9 18.4477 9.44771 18 10 18H22C22.5523 18 23 18.4477 23 19C23 19.5523 22.5523 20 22 20H10C9.44771 20 9 19.5523 9 19Z" fill="black" fill-opacity="0.65"/>
<path fill-rule="evenodd" clip-rule="evenodd" d="M4 9C2.34315 9 1 10.3431 1 12C1 13.6569 2.34315 15 4 15C5.65685 15 7 13.6569 7 12C7 10.3431 5.65685 9 4 9ZM3 12C3 11.4477 3.44772 11 4 11C4.55228 11 5 11.4477 5 12C5 12.5523 4.55228 13 4 13C3.44772 13 3 12.5523 3 12Z" fill="black" fill-opacity="0.65"/>
<path fill-rule="evenodd" clip-rule="evenodd" d="M1 19C1 17.3431 2.34315 16 4 16C5.65685 16 7 17.3431 7 19C7 20.6569 5.65685 22 4 22C2.34315 22 1 20.6569 1 19ZM4 18C3.44772 18 3 18.4477 3 19C3 19.5523 3.44772 20 4 20C4.55228 20 5 19.5523 5 19C5 18.4477 4.55228 18 4 18Z" fill="black" fill-opacity="0.65"/>
</svg>
