<svg width="24" height="24" viewBox="0 0 24 24" fill="none" xmlns="http://www.w3.org/2000/svg">
<path fill-rule="evenodd" clip-rule="evenodd" d="M7.6374 3.3954C5.0604 3.3954 3.3954 5.1624 3.3954 7.8884V16.1024C3.3954 16.8674 3.5374 17.5504 3.7804 18.1414C3.7909 18.1289 4.02012 17.8495 4.31901 17.4853C4.90247 16.7743 5.75145 15.7397 5.7574 15.7344C6.4494 14.9444 7.7484 13.7664 9.4534 14.4794C9.82702 14.6343 10.1591 14.8465 10.4648 15.0419C10.4946 15.0609 10.5241 15.0798 10.5534 15.0984C11.1264 15.4814 11.4634 15.6614 11.8134 15.6314C11.9584 15.6114 12.0944 15.5684 12.2234 15.4884C12.71 15.1884 13.9716 13.4008 14.3494 12.8655C14.4049 12.787 14.4413 12.7354 14.4534 12.7194C15.5434 11.2994 17.2234 10.9194 18.6234 11.7594C18.8114 11.8714 20.1584 12.8124 20.6044 13.1904V7.8884C20.6044 5.1624 18.9394 3.3954 16.3534 3.3954H7.6374ZM16.3534 2.0004C19.7304 2.0004 21.9994 4.3624 21.9994 7.8884V16.1024C21.9994 16.1911 21.9901 16.2742 21.9808 16.3574C21.9742 16.4158 21.9677 16.4741 21.9644 16.5344C21.9623 16.5708 21.9612 16.6073 21.9602 16.6437C21.9588 16.6923 21.9574 16.7408 21.9534 16.7894C21.9514 16.8084 21.9477 16.8267 21.9439 16.8449C21.9402 16.8632 21.9364 16.8814 21.9344 16.9004C21.9014 17.2144 21.8504 17.5144 21.7794 17.8054C21.7626 17.8781 21.7432 17.9482 21.7237 18.019L21.7194 18.0344C21.6394 18.3164 21.5454 18.5854 21.4324 18.8424C21.4126 18.8856 21.3917 18.9277 21.3708 18.9699C21.3569 18.9979 21.343 19.026 21.3294 19.0544C21.2074 19.2994 21.0754 19.5344 20.9224 19.7524C20.8941 19.7928 20.864 19.8306 20.8338 19.8685C20.8139 19.8935 20.7939 19.9185 20.7744 19.9444C20.6154 20.1504 20.4494 20.3474 20.2614 20.5264C20.2239 20.5621 20.1833 20.5948 20.1427 20.6274C20.1174 20.6478 20.092 20.6682 20.0674 20.6894C19.8744 20.8554 19.6774 21.0144 19.4604 21.1504C19.413 21.1802 19.3627 21.2051 19.3126 21.23C19.2802 21.2461 19.2478 21.2621 19.2164 21.2794C18.9954 21.4014 18.7724 21.5204 18.5294 21.6124C18.4709 21.6346 18.4087 21.6507 18.3463 21.6668C18.302 21.6782 18.2576 21.6897 18.2144 21.7034C18.1928 21.7101 18.1712 21.7168 18.1496 21.7235C17.9325 21.7911 17.7161 21.8584 17.4824 21.8984C17.347 21.9221 17.2033 21.9313 17.0595 21.9404C16.9973 21.9443 16.935 21.9483 16.8734 21.9534C16.8072 21.9584 16.7422 21.9663 16.6772 21.9743C16.5715 21.9874 16.4655 22.0004 16.3534 22.0004H7.6374C7.2614 22.0004 6.90241 21.9624 6.55541 21.9054C6.54241 21.9034 6.53041 21.9014 6.5184 21.8994C5.16541 21.6664 4.0424 21.0134 3.2554 20.0284C3.24994 20.0284 3.24779 20.0247 3.24493 20.0198C3.24309 20.0166 3.24094 20.0129 3.2374 20.0094C2.4464 19.0134 1.9994 17.6744 1.9994 16.1024V7.8884C1.9994 4.3624 4.2704 2.0004 7.6374 2.0004H16.3534ZM11 8.51496C11 9.86991 9.86628 11 8.50485 11C7.30814 11 6.28779 10.1257 6.05911 8.99363C6.02132 8.82378 6 8.64911 6 8.46864C6 7.10404 7.10853 6 8.47869 6C9.17636 6 9.80814 6.29338 10.2607 6.76144C10.7151 7.21309 11 7.83556 11 8.51496Z" fill="#200E32"/>
</svg>
