<svg width="24" height="24" viewBox="0 0 24 24" fill="none" xmlns="http://www.w3.org/2000/svg">
<path fill-rule="evenodd" clip-rule="evenodd" d="M5.76244 9.9273C3.68718 9.9273 2.00015 8.26092 2.00015 6.21365C2.00015 6.00463 2.0178 5.79909 2.05192 5.59935C2.13191 5.12441 2.58132 4.80739 3.06719 4.88287C3.54718 4.96299 3.87306 5.41123 3.79189 5.88618C3.77424 5.99185 3.76483 6.10217 3.76483 6.21365C3.76483 7.30057 4.66011 8.18544 5.76244 8.18544C6.86477 8.18544 7.76005 7.30057 7.76005 6.21365C7.76005 5.12557 6.86477 4.24186 5.76244 4.24186C5.61185 4.24186 5.46127 4.25812 5.31774 4.29063C4.84128 4.40327 4.36835 4.10832 4.25776 3.64034C4.14717 3.17236 4.44246 2.70322 4.91775 2.59522C5.19304 2.53135 5.47656 2.5 5.76244 2.5C7.8377 2.5 9.52473 4.16522 9.52473 6.21365C9.52473 8.26092 7.8377 9.9273 5.76244 9.9273ZM21.1174 7.08424H13.8834C13.3964 7.08424 13.0011 6.69406 13.0011 6.21331C13.0011 5.73255 13.3964 5.34237 13.8834 5.34237H21.1174C21.6045 5.34237 21.9998 5.73255 21.9998 6.21331C21.9998 6.69406 21.6045 7.08424 21.1174 7.08424ZM5.06415 18.6571H12.2993C12.7864 18.6571 13.1817 18.2669 13.1817 17.7861C13.1817 17.3054 12.7864 16.9152 12.2993 16.9152H5.06415C4.5771 16.9152 4.18182 17.3054 4.18182 17.7861C4.18182 18.2669 4.5771 18.6571 5.06415 18.6571Z" fill="#200E32"/>
<path d="M18.1527 12.651H10.9187C10.4316 12.651 10.0364 12.2608 10.0364 11.78C10.0364 11.2993 10.4316 10.9091 10.9187 10.9091H18.1527C18.6397 10.9091 19.035 11.2993 19.035 11.78C19.035 12.2608 18.6397 12.651 18.1527 12.651" fill="#230B34"/>
</svg>
